<svg width="226" height="36" viewBox="0 0 226 36" fill="none" xmlns="http://www.w3.org/2000/svg">
<g clip-path="url(#clip0_553_36)">
<path d="M63.5321 25.7583C65.0304 25.7583 66.3695 25.5584 67.549 25.1585C68.7478 24.7585 69.7586 24.2327 70.5829 23.5811C71.4066 22.9145 71.9969 22.1888 72.3525 21.4037L68.9255 20.1374C68.5133 20.9668 67.8393 21.6555 66.9034 22.2035C65.9853 22.7368 64.8617 23.0034 63.5321 23.0034C62.2214 23.0034 61.0699 22.759 60.0773 22.2702C59.0848 21.7814 58.3077 21.1075 57.7459 20.2484C57.1841 19.3744 56.9031 18.3599 56.9031 17.2046C56.9031 16.0492 57.1841 15.042 57.7459 14.183C58.3077 13.3091 59.0848 12.6352 60.0773 12.1611C61.0699 11.6724 62.2214 11.4281 63.5321 11.4281C64.8617 11.4281 65.9853 11.7021 66.9034 12.2501C67.8393 12.7833 68.5133 13.4646 68.9255 14.2941L72.3525 13.0277C71.9969 12.2427 71.4066 11.5243 70.5829 10.8726C69.7586 10.2061 68.7478 9.67283 67.549 9.27291C66.3695 8.87299 65.0304 8.67303 63.5321 8.67303C62.0343 8.67303 60.6483 8.88783 59.375 9.31735C58.1017 9.73205 56.9968 10.3245 56.0605 11.0948C55.1242 11.8502 54.3938 12.7537 53.8695 13.8053C53.3451 14.8421 53.083 15.9753 53.083 17.2046C53.083 18.4339 53.3451 19.5745 53.8695 20.6261C54.3938 21.6629 55.1242 22.5665 56.0605 23.3366C56.9968 24.1068 58.1017 24.7067 59.375 25.1363C60.6483 25.551 62.0343 25.7583 63.5321 25.7583Z" fill="white"/>
<path d="M75.1436 25.491H78.8237V18.759C78.8237 17.8407 79.1421 17.1298 79.7786 16.6262C80.4337 16.1078 81.2763 15.8486 82.3067 15.8486H83.6268V13.2713H82.7277C81.7918 13.2713 80.9676 13.4046 80.2561 13.6712C79.5446 13.9378 78.9917 14.4193 78.5987 15.1154V13.4046H75.1436V25.491Z" fill="white"/>
<path d="M87.504 30.4008C88.9465 30.4008 90.1449 30.075 91.0998 29.4232C92.0737 28.7863 92.8505 27.8828 93.4313 26.7127L100.088 13.4043H96.0995L92.167 21.7359L88.2066 13.4043H84.2461L90.285 25.4907L89.9483 26.1351C89.6485 26.6386 89.3022 27.0459 88.9085 27.357C88.5344 27.668 87.9256 27.8236 87.083 27.8236C86.7831 27.8236 86.4648 27.8014 86.1281 27.7569C85.7908 27.7273 85.4915 27.6829 85.2289 27.6236V30.0675C85.5473 30.1861 85.9031 30.2675 86.2967 30.3119C86.6898 30.3711 87.0925 30.4008 87.504 30.4008Z" fill="white"/>
<path d="M102.109 29.9344H105.789V24.3356C106.351 24.7948 107.034 25.1502 107.839 25.402C108.645 25.639 109.515 25.7576 110.452 25.7576C111.931 25.7576 113.251 25.4835 114.412 24.9354C115.573 24.3726 116.491 23.6172 117.165 22.6692C117.839 21.7065 118.177 20.6327 118.177 19.4477C118.177 18.2627 117.839 17.1964 117.165 16.2484C116.491 15.2856 115.573 14.5303 114.412 13.9822C113.251 13.4194 111.941 13.1379 110.48 13.1379C109.431 13.1379 108.486 13.286 107.643 13.5823C106.8 13.8785 106.107 14.2932 105.564 14.8264V13.4045H102.109V29.9344ZM110.031 23.0914C109.226 23.0914 108.495 22.9358 107.839 22.6248C107.203 22.3138 106.698 21.8842 106.323 21.3362C105.967 20.7882 105.789 20.1586 105.789 19.4477C105.789 18.7368 105.967 18.1072 106.323 17.5592C106.698 17.0112 107.203 16.5817 107.839 16.2706C108.495 15.9596 109.226 15.8041 110.031 15.8041C110.874 15.8041 111.613 15.967 112.249 16.2928C112.905 16.6038 113.42 17.0334 113.795 17.5815C114.169 18.1295 114.357 18.7516 114.357 19.4477C114.357 20.1439 114.169 20.7733 113.795 21.3362C113.42 21.8842 112.905 22.3138 112.249 22.6248C111.613 22.9358 110.874 23.0914 110.031 23.0914Z" fill="white"/>
<path d="M127.674 25.6246C128.292 25.6246 128.9 25.5876 129.501 25.5135V23.0029C129.145 23.0473 128.816 23.0696 128.516 23.0696C127.618 23.0696 126.962 22.9067 126.55 22.5808C126.138 22.255 125.933 21.7884 125.933 21.1811V16.0044H129.443V13.4049H125.933V10.65H122.253V11.5832C122.253 12.1756 122.047 12.6273 121.635 12.9383C121.223 13.2494 120.642 13.4049 119.893 13.4049H119.612V16.0044H122.253V21.3366C122.253 22.6845 122.721 23.7361 123.657 24.4915C124.612 25.247 125.951 25.6246 127.674 25.6246Z" fill="white"/>
<path d="M139.646 25.7576C141.126 25.7576 142.475 25.4909 143.691 24.9577C144.909 24.4096 145.883 23.6616 146.614 22.7137C147.343 21.751 147.708 20.6622 147.708 19.4477C147.708 18.2331 147.343 17.1519 146.614 16.204C145.902 15.256 144.937 14.508 143.721 13.96C142.503 13.412 141.145 13.1379 139.646 13.1379C138.13 13.1379 136.763 13.412 135.546 13.96C134.328 14.508 133.355 15.256 132.625 16.204C131.913 17.1519 131.557 18.2331 131.557 19.4477C131.557 20.6622 131.913 21.7436 132.625 22.6915C133.355 23.6395 134.328 24.3874 135.546 24.9354C136.781 25.4835 138.148 25.7576 139.646 25.7576ZM139.646 23.0914C138.823 23.0914 138.083 22.9358 137.428 22.6248C136.791 22.3138 136.286 21.8842 135.91 21.3362C135.555 20.7733 135.377 20.1439 135.377 19.4477C135.377 18.7516 135.555 18.1295 135.91 17.5815C136.286 17.0334 136.791 16.6038 137.428 16.2928C138.083 15.967 138.823 15.8041 139.646 15.8041C140.471 15.8041 141.192 15.967 141.809 16.2928C142.446 16.6038 142.943 17.0334 143.298 17.5815C143.673 18.1295 143.86 18.7516 143.86 19.4477C143.86 20.1439 143.673 20.7733 143.298 21.3362C142.943 21.8842 142.446 22.3138 141.809 22.6248C141.192 22.9358 140.471 23.0914 139.646 23.0914Z" fill="white"/>
<path d="M150.498 25.4909H154.178V18.4035C154.178 17.6184 154.459 16.9889 155.02 16.515C155.601 16.041 156.35 15.8041 157.268 15.8041C158.186 15.8041 158.924 16.041 159.487 16.515C160.068 16.9742 160.358 17.6036 160.358 18.4035V25.4909H164.037V17.7147C164.037 16.8113 163.793 16.0188 163.307 15.3374C162.82 14.6413 162.136 14.1007 161.256 13.7155C160.395 13.3304 159.403 13.1379 158.278 13.1379C157.324 13.1379 156.463 13.286 155.695 13.5823C154.945 13.8785 154.366 14.3155 153.952 14.8931V13.4045H150.498V25.4909Z" fill="white"/>
<path d="M171.783 25.7576C173.768 25.7576 175.36 25.2391 176.558 24.2023V25.4909H180.042V17.4481C180.042 16.6038 179.769 15.8559 179.228 15.2042C178.683 14.5524 177.935 14.0488 176.98 13.6934C176.043 13.323 174.948 13.1379 173.693 13.1379C172.158 13.1379 170.79 13.4268 169.592 14.0044C168.394 14.5821 167.569 15.3448 167.12 16.2928L170.127 17.4481C170.408 16.9001 170.847 16.4632 171.446 16.1373C172.045 15.7966 172.748 15.6263 173.553 15.6263C174.395 15.6263 175.07 15.8041 175.575 16.1595C176.1 16.5001 176.361 16.9297 176.361 17.4481V17.8481L171.812 18.4258C170.014 18.6626 168.685 19.1145 167.823 19.781C166.96 20.4475 166.53 21.2844 166.53 22.2916C166.53 23.358 167.008 24.2023 167.963 24.8243C168.918 25.4465 170.191 25.7576 171.783 25.7576ZM170.35 22.1805C170.35 21.3362 171.072 20.803 172.513 20.5808L176.361 20.0698V20.5586C176.361 21.388 175.997 22.0916 175.267 22.6692C174.554 23.2469 173.619 23.5358 172.457 23.5358C171.84 23.5358 171.333 23.4173 170.941 23.1803C170.547 22.9284 170.35 22.5952 170.35 22.1805Z" fill="white"/>
<path d="M188.892 25.7573C189.847 25.7573 190.689 25.6166 191.419 25.3352C192.169 25.0389 192.758 24.6094 193.19 24.0465V25.4907H196.672V13.4043H192.993V20.4917C192.993 21.2916 192.703 21.9285 192.122 22.4025C191.541 22.8617 190.801 23.0912 189.903 23.0912C188.986 23.0912 188.236 22.8617 187.656 22.4025C187.094 21.9433 186.813 21.3286 186.813 20.5584V13.4043H183.133V20.8028C183.133 22.284 183.639 23.4837 184.65 24.4021C185.68 25.3056 187.094 25.7573 188.892 25.7573Z" fill="white"/>
<path d="M207.061 25.6246C207.678 25.6246 208.287 25.5876 208.886 25.5135V23.0029C208.53 23.0473 208.202 23.0696 207.903 23.0696C207.004 23.0696 206.349 22.9067 205.937 22.5808C205.525 22.255 205.319 21.7884 205.319 21.1811V16.0044H208.83V13.4049H205.319V10.65H201.64V11.5832C201.64 12.1756 201.433 12.6273 201.021 12.9383C200.609 13.2494 200.028 13.4049 199.28 13.4049H198.998V16.0044H201.64V21.3366C201.64 22.6845 202.107 23.7361 203.044 24.4915C203.999 25.247 205.338 25.6246 207.061 25.6246Z" fill="white"/>
<path d="M218.806 25.7576C220.361 25.7576 221.719 25.4835 222.879 24.9354C224.059 24.3726 224.884 23.6616 225.352 22.8026L222.374 21.6473C222.037 22.1064 221.569 22.4841 220.969 22.7803C220.39 23.0618 219.678 23.2025 218.834 23.2025C217.73 23.2025 216.803 22.9358 216.054 22.4026C215.305 21.8695 214.875 21.1584 214.763 20.2697H225.772C225.848 20.1068 225.895 19.9217 225.913 19.7143C225.951 19.4921 225.97 19.27 225.97 19.0478C225.97 17.9666 225.68 16.9816 225.099 16.0929C224.518 15.2042 223.676 14.4931 222.571 13.96C221.466 13.412 220.117 13.1379 218.526 13.1379C217.103 13.1379 215.811 13.412 214.65 13.96C213.508 14.508 212.599 15.256 211.924 16.204C211.269 17.1371 210.941 18.2109 210.941 19.4256C210.941 20.5956 211.269 21.662 211.924 22.6248C212.581 23.5876 213.498 24.3504 214.678 24.9133C215.858 25.4761 217.234 25.7576 218.806 25.7576ZM218.526 15.5375C219.5 15.5375 220.306 15.7744 220.941 16.2484C221.597 16.7075 221.962 17.3075 222.037 18.048H214.847C215.052 17.2482 215.483 16.6335 216.138 16.204C216.813 15.7596 217.608 15.5375 218.526 15.5375Z" fill="white"/>
<path d="M20.7075 3.1694C9.84434 3.1694 1.03809 10.2324 1.03809 18.9451C1.03809 27.6578 9.84434 34.7208 20.7075 34.7208C31.5704 34.7208 40.3768 27.6578 40.3768 18.9451C40.3768 10.2324 31.5704 3.1694 20.7075 3.1694Z" fill="#163EB2"/>
<path d="M17.4692 18.3249C16.7287 18.8442 16.0422 19.4697 15.5324 20.2141C13.4316 23.2833 15.0478 27.2261 15.0478 27.2261C15.0478 27.2261 20.063 26.2033 22.1638 23.1342C22.6736 22.3897 22.9627 21.5893 23.1117 20.8095L17.4692 18.3249Z" fill="#C20404"/>
<path d="M24.721 19.6977L27.5532 22.3822L29.781 18.4426L28.4651 16.3327C32.4902 12.239 33.931 8.82067 34.244 6.23081C34.6917 2.68128 33.0133 0.698415 33.0133 0.698415C33.0133 0.698415 30.0263 0.626916 26.529 2.83358C23.9762 4.43719 21.1536 7.2471 19.0042 12.1667L16.0783 12.4087L13.1299 16.0311L17.4741 16.5066L24.721 19.6977ZM28.7784 6.88498C30.1602 7.49343 30.6681 8.89111 29.91 9.99863C29.1519 11.1061 27.4089 11.5126 26.0272 10.9042C24.6454 10.2957 24.1373 8.89802 24.8955 7.7905C25.6536 6.68303 27.3966 6.27652 28.7784 6.88498Z" fill="white"/>
<path d="M33.0134 0.698151C33.0134 0.698151 35.0189 2.98495 34.024 7.46601L30.1973 4.82646L25.4521 3.5988C28.8197 0.698151 33.0134 0.698151 33.0134 0.698151Z" fill="#163EB2"/>
</g>
<defs>
<clipPath id="clip0_553_36">
<rect width="226" height="34.4724" fill="white" transform="translate(0 0.698151)"/>
</clipPath>
</defs>
</svg>
