<svg width="211" height="52" viewBox="0 0 211 52" fill="none" xmlns="http://www.w3.org/2000/svg">
<g clip-path="url(#clip0_553_44)">
<path d="M63.9925 28.2147L62.1094 30.7091V36.7713H57.5195V13.7852H62.1094V23.9204L63.7048 20.9999L67.8109 13.7852H73.4862L67.0525 23.9522L73.4862 36.7713H68.0464L63.9925 28.2147Z" fill="white"/>
<path d="M83.2721 24.5043L81.8206 24.378C80.4346 24.378 79.5452 24.9042 79.153 25.9568V36.771H74.7461V19.6892H78.8784L79.0221 21.8837C79.7633 20.2103 80.7963 19.3736 82.1214 19.3736C82.5922 19.3736 83.0018 19.4367 83.3506 19.563L83.2721 24.5043Z" fill="white"/>
<path d="M91.0209 29.3197L93.3748 19.6894H98.0954L92.3286 39.6285L92.08 40.3548C91.2606 42.565 89.8133 43.67 87.7386 43.67C87.1632 43.67 86.5574 43.5649 85.9209 43.3544V39.5497H86.4964C87.1153 39.5497 87.5861 39.4391 87.9086 39.2181C88.2398 39.0075 88.484 38.6235 88.6409 38.0657L88.9939 36.9289L84.0771 19.6894H88.7848L91.0209 29.3197Z" fill="white"/>
<path d="M112.657 28.3561C112.657 31.0084 112.16 33.1292 111.166 34.7184C110.181 36.2972 108.847 37.0864 107.164 37.0864C105.866 37.0864 104.797 36.5129 103.961 35.3656V43.3382H99.5537V19.6889H103.673L103.804 21.2678C104.649 20.0048 105.761 19.3733 107.138 19.3733C108.882 19.3733 110.237 20.1521 111.205 21.7098C112.173 23.2569 112.657 25.3882 112.657 28.1035V28.3561ZM108.25 28.0246C108.25 24.9935 107.518 23.4779 106.053 23.4779C105.007 23.4779 104.309 23.9305 103.961 24.8355V31.561C104.344 32.5082 105.05 32.9817 106.079 32.9817C107.483 32.9817 108.206 31.5188 108.25 28.593V28.0246Z" fill="white"/>
<path d="M120.011 15.4428V19.6895H122.339V23.3839H120.011V31.1984C120.011 31.8404 120.108 32.2877 120.299 32.5404C120.49 32.7929 120.87 32.9191 121.437 32.9191C121.873 32.9191 122.238 32.8876 122.535 32.8245V36.6291C121.741 36.9343 120.914 37.087 120.051 37.087C118.534 37.087 117.413 36.6555 116.69 35.7925C115.966 34.9293 115.604 33.6192 115.604 31.8613V23.3839H113.8V19.6895H115.604V15.4428H120.011Z" fill="white"/>
<path d="M123.404 28.0719C123.404 26.367 123.679 24.8514 124.229 23.5254C124.778 22.1887 125.566 21.1625 126.596 20.4468C127.624 19.7311 128.831 19.3733 130.217 19.3733C132.337 19.3733 134.006 20.1679 135.226 21.7572C136.446 23.3357 137.057 25.4881 137.057 28.2141V28.4035C137.057 31.0662 136.442 33.1818 135.213 34.75C133.992 36.3075 132.337 37.0864 130.244 37.0864C128.23 37.0864 126.613 36.3603 125.392 34.9078C124.172 33.4449 123.514 31.4662 123.418 28.9718L123.404 28.0719ZM127.811 28.4035C127.811 29.9822 128.016 31.1399 128.427 31.8767C128.836 32.6135 129.441 32.9817 130.244 32.9817C131.813 32.9817 132.615 31.5241 132.65 28.6088V28.0719C132.65 25.0092 131.839 23.4779 130.217 23.4779C128.745 23.4779 127.946 24.7987 127.825 27.4405L127.811 28.4035Z" fill="white"/>
<path d="M146.675 31.9713C146.675 31.5188 146.477 31.1557 146.085 30.8821C145.695 30.6084 144.949 30.3243 143.85 30.0296C142.752 29.7349 141.845 29.3507 141.13 28.877C140.415 28.393 139.87 27.8088 139.496 27.1247C139.12 26.4407 138.933 25.6565 138.933 24.7725C138.933 23.2043 139.469 21.915 140.541 20.9047C141.613 19.8837 143.017 19.3733 144.753 19.3733C146.618 19.3733 148.117 19.8837 149.25 20.9047C150.384 21.9256 150.95 23.2673 150.95 24.9303H146.53C146.53 23.5621 145.934 22.878 144.739 22.878C144.278 22.878 143.889 23.0359 143.575 23.3517C143.262 23.6568 143.104 24.0411 143.104 24.504C143.104 24.9777 143.295 25.3618 143.68 25.6565C144.064 25.9512 144.674 26.1934 145.51 26.3828C146.356 26.5722 147.097 26.7984 147.734 27.0617C149.86 27.9457 150.925 29.5296 150.925 31.8135C150.925 33.3712 150.349 34.6396 149.197 35.6181C148.057 36.597 146.574 37.0864 144.753 37.0864C143.541 37.0864 142.459 36.8232 141.509 36.2972C140.559 35.771 139.818 35.0552 139.286 34.15C138.755 33.2448 138.488 32.2923 138.488 31.2926H142.608C142.625 32.0819 142.842 32.6607 143.262 33.0291C143.68 33.387 144.216 33.5659 144.869 33.5659C145.472 33.5659 145.921 33.4186 146.217 33.1239C146.522 32.8292 146.675 32.445 146.675 31.9713Z" fill="white"/>
<path d="M158.463 32.6664H164.908V36.7711H152.892V33.8032L159.169 23.7941H153.166V19.6894H164.765V22.5627L158.463 32.6664Z" fill="white"/>
<path d="M173.952 37.0867C171.782 37.0867 170.024 36.3078 168.682 34.7503C167.339 33.1821 166.668 31.1456 166.668 28.6406V28.1986C166.668 26.4515 166.933 24.9096 167.466 23.573C168.005 22.2363 168.791 21.2049 169.819 20.4787C170.848 19.7419 172.069 19.3736 173.481 19.3736C175.469 19.3736 177.037 20.1208 178.189 21.6153C179.338 23.0993 179.915 25.1727 179.915 27.8355V29.9037H171.153C171.31 30.8613 171.655 31.6137 172.186 32.1611C172.718 32.7085 173.407 32.982 174.252 32.982C175.648 32.982 176.737 32.3927 177.521 31.2139L179.536 34.0871C178.987 35.0027 178.205 35.7344 177.195 36.2817C176.192 36.8182 175.111 37.0867 173.952 37.0867ZM173.455 23.4782C172.164 23.4782 171.396 24.5097 171.153 26.5725H175.599V26.162C175.616 25.3095 175.438 24.6517 175.063 24.1887C174.688 23.7151 174.152 23.4782 173.455 23.4782Z" fill="white"/>
<path d="M186.015 19.6889L186.159 21.694C187.136 20.1468 188.481 19.3733 190.198 19.3733C191.673 19.3733 192.771 19.9048 193.495 20.9677C194.227 22.0308 194.606 23.6304 194.632 25.7671V36.7707H190.213V25.9881C190.213 25.1249 190.069 24.4936 189.781 24.0936C189.493 23.6832 188.969 23.4779 188.212 23.4779C187.348 23.4779 186.708 23.8883 186.29 24.7093V36.7707H181.883V19.6889H186.015Z" fill="white"/>
<path d="M204.198 37.0867C202.028 37.0867 200.272 36.3078 198.928 34.7503C197.586 33.1821 196.914 31.1456 196.914 28.6406V28.1986C196.914 26.4515 197.179 24.9096 197.712 23.573C198.252 22.2363 199.037 21.2049 200.065 20.4787C201.095 19.7419 202.315 19.3736 203.728 19.3736C205.715 19.3736 207.284 20.1208 208.435 21.6153C209.586 23.0993 210.161 25.1727 210.161 27.8355V29.9037H201.399C201.557 30.8613 201.901 31.6137 202.432 32.1611C202.965 32.7085 203.653 32.982 204.499 32.982C205.894 32.982 206.984 32.3927 207.767 31.2139L209.782 34.0871C209.233 35.0027 208.452 35.7344 207.441 36.2817C206.439 36.8182 205.358 37.0867 204.198 37.0867ZM203.701 23.4782C202.41 23.4782 201.644 24.5097 201.399 26.5725H205.845V26.162C205.864 25.3095 205.685 24.6517 205.309 24.1887C204.936 23.7151 204.398 23.4782 203.701 23.4782Z" fill="white"/>
<path d="M21.7487 50.5578C33.304 50.5578 42.6714 39.2488 42.6714 25.2987C42.6714 11.3483 33.304 0.0393677 21.7487 0.0393677C10.1935 0.0393677 0.826172 11.3483 0.826172 25.2987C0.826172 39.2488 10.1935 50.5578 21.7487 50.5578Z" fill="#EB9A29"/>
<path d="M7.86461 19.4424H1.1123V21.6238H7.86461V19.4424Z" fill="white"/>
<path d="M7.86461 28.9725H1.1123V31.1541H7.86461V28.9725Z" fill="white"/>
<path d="M11.4784 24.2653H0.636719V26.3319H11.4784V24.2653Z" fill="white"/>
<path d="M35.6309 19.4364H42.3936V21.568H35.6309V19.4364Z" fill="white"/>
<path d="M35.6309 29.0296H42.3936V31.1611H35.6309V29.0296Z" fill="white"/>
<path d="M31.9805 24.233H42.8222V26.3647H31.9805V24.233Z" fill="white"/>
<path d="M21.2653 28.0693L19.5194 30.382V36.0029H15.2637V14.6905H19.5194V24.0877L20.9986 21.3798L24.8057 14.6905H30.0678L24.1025 24.117L30.0678 36.0029H25.024L21.2653 28.0693Z" fill="white"/>
</g>
<defs>
<clipPath id="clip0_553_44">
<rect width="211" height="51.1864" fill="white" transform="translate(0 0.0393677)"/>
</clipPath>
</defs>
</svg>
